<?xml version="1.0" encoding="iso-8859-1"?>
<!-- Generator: Adobe Illustrator 19.0.0, SVG Export Plug-In . SVG Version: 6.00 Build 0)  -->
<svg version="1.1" id="Layer_1" xmlns="http://www.w3.org/2000/svg" xmlns:xlink="http://www.w3.org/1999/xlink" x="0px" y="0px"
	 viewBox="0 0 512 512" style="enable-background:new 0 0 512 512;" xml:space="preserve">
<g>
	<path style="fill:#2D527C;" d="M256.001,125.572c-34.621,0-62.786-28.165-62.786-62.786S221.38,0,256.001,0
		s62.786,28.165,62.786,62.786S290.62,125.572,256.001,125.572z M256.001,28.539c-18.883,0-34.247,15.364-34.247,34.247
		s15.364,34.247,34.247,34.247s34.247-15.364,34.247-34.247S274.884,28.539,256.001,28.539z"/>
	<path style="fill:#2D527C;" d="M430.463,512H42.231c-19.71,0-35.745-16.035-35.745-35.747V105.943
		c0-19.71,16.035-35.745,35.745-35.745h427.539c19.71,0,35.745,16.035,35.745,35.745v310.335c0,7.88-6.39,14.27-14.27,14.27
		c-7.88,0-14.27-6.39-14.27-14.27V105.943c0-3.973-3.233-7.206-7.206-7.206H42.231c-3.974,0-7.206,3.233-7.206,7.206v370.311
		c0,3.974,3.233,7.208,7.206,7.208h388.232c7.88,0,14.27,6.39,14.27,14.27S438.344,512,430.463,512z"/>
</g>
<path style="fill:#CEE8FA;" d="M491.245,157.286v-51.343c0-11.861-9.615-21.476-21.476-21.476H42.231
	c-11.861,0-21.476,9.615-21.476,21.476v51.343L491.245,157.286L491.245,157.286z"/>
<path style="fill:#2D527C;" d="M491.245,171.557H20.755c-7.881,0-14.27-6.39-14.27-14.27v-51.345
	c0-19.71,16.036-35.745,35.745-35.745h427.539c19.71,0,35.745,16.035,35.745,35.745v51.343
	C505.514,165.167,499.125,171.557,491.245,171.557z M35.025,143.018h441.951v-37.075c0-3.973-3.233-7.206-7.206-7.206H42.231
	c-3.974,0-7.206,3.233-7.206,7.206C35.025,105.943,35.025,143.018,35.025,143.018z"/>
<path style="fill:#CEE8FA;" d="M123.416,284.998h-7.61c-17.206,0-31.155-13.948-31.155-31.155l0,0
	c0-17.206,13.948-31.155,31.155-31.155h7.61c17.206,0,31.155,13.948,31.155,31.155l0,0
	C154.572,271.049,140.623,284.998,123.416,284.998z"/>
<g>
	<path style="fill:#2D527C;" d="M123.417,299.269h-7.61c-25.047,0-45.424-20.377-45.424-45.426
		c0-25.047,20.377-45.424,45.424-45.424h7.61c25.047,0,45.424,20.377,45.424,45.424S148.463,299.269,123.417,299.269z
		 M115.806,236.958c-9.311,0-16.885,7.576-16.885,16.885c0,9.311,7.576,16.887,16.885,16.887h7.61
		c9.311,0,16.885-7.576,16.885-16.887c0-9.309-7.574-16.885-16.885-16.885L115.806,236.958L115.806,236.958z"/>
	<path style="fill:#2D527C;" d="M290.961,299.269c-7.88,0-14.27-6.39-14.27-14.27v-48.041H235.31v48.041
		c0,7.88-6.388,14.27-14.27,14.27s-14.27-6.39-14.27-14.27v-62.311c0-7.88,6.388-14.27,14.27-14.27h69.921
		c7.88,0,14.27,6.39,14.27,14.27v62.311C305.231,292.879,298.841,299.269,290.961,299.269z"/>
</g>
<rect x="357.423" y="222.69" style="fill:#CEE8FA;" width="69.921" height="62.311"/>
<path style="fill:#2D527C;" d="M427.35,299.269H357.43c-7.88,0-14.27-6.39-14.27-14.27v-62.311c0-7.88,6.39-14.27,14.27-14.27
	h69.921c7.88,0,14.27,6.39,14.27,14.27v62.311C441.62,292.879,435.23,299.269,427.35,299.269z M371.699,270.73h41.382v-33.772
	h-41.382V270.73z"/>
<rect x="84.647" y="353.969" style="fill:#CEE8FA;" width="69.921" height="62.311"/>
<path style="fill:#2D527C;" d="M154.572,430.548H84.651c-7.881,0-14.27-6.39-14.27-14.27v-62.311c0-7.88,6.388-14.27,14.27-14.27
	h69.921c7.881,0,14.27,6.39,14.27,14.27v62.311C168.841,424.158,162.451,430.548,154.572,430.548z M98.921,402.009h41.382v-33.772
	H98.921V402.009z"/>
<path style="fill:#CEE8FA;" d="M259.805,416.277h-7.61c-17.206,0-31.155-13.948-31.155-31.155l0,0
	c0-17.206,13.948-31.155,31.155-31.155h7.61c17.206,0,31.155,13.948,31.155,31.155l0,0
	C290.961,402.329,277.011,416.277,259.805,416.277z"/>
<g>
	<path style="fill:#2D527C;" d="M259.806,430.548h-7.61c-25.047,0-45.424-20.377-45.424-45.426
		c0-25.047,20.377-45.424,45.424-45.424h7.61c25.047,0,45.424,20.377,45.424,45.424C305.231,410.17,284.852,430.548,259.806,430.548
		z M252.195,368.238c-9.311,0-16.885,7.576-16.885,16.885c0,9.311,7.576,16.887,16.885,16.887h7.61
		c9.309,0,16.885-7.576,16.885-16.887c0-9.309-7.576-16.885-16.885-16.885L252.195,368.238L252.195,368.238z"/>
	<path style="fill:#2D527C;" d="M427.35,430.548c-7.88,0-14.27-6.39-14.27-14.27v-48.041h-41.382v48.041
		c0,7.88-6.39,14.27-14.27,14.27c-7.88,0-14.27-6.39-14.27-14.27v-62.311c0-7.88,6.39-14.27,14.27-14.27h69.921
		c7.88,0,14.27,6.39,14.27,14.27v62.311C441.62,424.158,435.23,430.548,427.35,430.548z"/>
</g>
<g>
</g>
<g>
</g>
<g>
</g>
<g>
</g>
<g>
</g>
<g>
</g>
<g>
</g>
<g>
</g>
<g>
</g>
<g>
</g>
<g>
</g>
<g>
</g>
<g>
</g>
<g>
</g>
<g>
</g>
</svg>
